<svg width="20" height="20" viewBox="0 0 20 20" fill="none" xmlns="http://www.w3.org/2000/svg">
<path opacity="0.4" d="M18.3333 6.50817V12.6332C18.0916 12.5165 17.825 12.4332 17.525 12.3832L17.2666 12.3415L17.05 11.8915C16.5916 10.9582 15.8416 10.4165 15 10.4165C14.1583 10.4165 13.4083 10.9582 12.95 11.8915L12.725 12.3415L12.475 12.3832C11.4833 12.5498 10.7666 13.0998 10.5083 13.8832C10.2583 14.6748 10.5166 15.5415 11.225 16.2582L11.4833 16.5165L11.4583 16.6165C11.2916 17.3582 11.3583 17.9248 11.5166 18.3332H6.50829C3.47496 18.3332 1.66663 16.5248 1.66663 13.4915V6.50817C1.66663 3.47484 3.47496 1.6665 6.50829 1.6665H13.4916C16.525 1.6665 18.3333 3.47484 18.3333 6.50817Z" fill="#4E4D4D"/>
<path d="M15.9333 12.4502L16.2 12.9919C16.3333 13.2585 16.675 13.5085 16.9583 13.5585L17.3167 13.6169C18.4083 13.8002 18.6583 14.6002 17.8833 15.3835L17.55 15.7169C17.325 15.9419 17.2083 16.3752 17.275 16.6919L17.3167 16.8919C17.6167 18.2085 16.9167 18.7169 15.775 18.0252L15.5333 17.8752C15.2417 17.7002 14.7583 17.7002 14.4667 17.8752L14.225 18.0252C13.075 18.7169 12.3833 18.2085 12.6833 16.8919L12.725 16.6919C12.7917 16.3835 12.675 15.9419 12.45 15.7169L12.1167 15.3835C11.3417 14.5919 11.5917 13.8002 12.6833 13.6169L13.0417 13.5585C13.3333 13.5085 13.6667 13.2585 13.8 12.9919L14.0667 12.4502C14.5833 11.4085 15.4167 11.4085 15.9333 12.4502Z" fill="#4E4D4D"/>
<path fill-rule="evenodd" clip-rule="evenodd" d="M13.4412 6.59786C13.714 6.80934 13.7637 7.20193 13.5523 7.47474L11.6235 9.96283C11.1278 10.5898 10.2138 10.7041 9.57613 10.2114L9.57178 10.208L8.04964 9.01025C7.9556 8.93882 7.82443 8.9566 7.75302 9.04873C7.75296 9.04881 7.75309 9.04864 7.75302 9.04873L5.77008 11.6232C5.55945 11.8967 5.16702 11.9476 4.89355 11.737C4.62009 11.5264 4.56915 11.1339 4.77978 10.8604L6.76372 8.28467C7.25864 7.64418 8.17632 7.52842 8.81543 8.02228L8.81978 8.02564L10.3419 9.22341C10.437 9.29558 10.5709 9.27699 10.6418 9.18908L12.5643 6.70891C12.7758 6.4361 13.1684 6.38638 13.4412 6.59786Z" fill="#4E4D4D"/>
</svg>
