<svg width="20" height="20" viewBox="0 0 20 20" fill="none" xmlns="http://www.w3.org/2000/svg">
<path d="M6.03329 1.6665L4.44996 1.6665C2.62496 1.6665 1.66663 2.62484 1.66663 4.4415L1.66663 6.02484C1.66663 7.8415 2.62496 8.79984 4.44163 8.79984H6.02496C7.84163 8.79984 8.79996 7.8415 8.79996 6.02484V4.4415C8.80829 2.62484 7.84996 1.6665 6.03329 1.6665Z" fill="#9A0536"/>
<path opacity="0.4" d="M15.5583 1.6665L13.975 1.6665C12.1583 1.6665 11.2 2.62484 11.2 4.4415V6.02484C11.2 7.8415 12.1583 8.79984 13.975 8.79984H15.5583C17.375 8.79984 18.3333 7.8415 18.3333 6.02484V4.4415C18.3333 2.62484 17.375 1.6665 15.5583 1.6665Z" fill="#9A0536"/>
<path d="M15.5583 11.1919H13.975C12.1583 11.1919 11.2 12.1502 11.2 13.9669V15.5502C11.2 17.3669 12.1583 18.3252 13.975 18.3252H15.5583C17.375 18.3252 18.3333 17.3669 18.3333 15.5502V13.9669C18.3333 12.1502 17.375 11.1919 15.5583 11.1919Z" fill="#9A0536"/>
<path opacity="0.4" d="M6.03329 11.1919H4.44996C2.62496 11.1919 1.66663 12.1502 1.66663 13.9669L1.66663 15.5502C1.66663 17.3752 2.62496 18.3336 4.44163 18.3336H6.02496C7.84163 18.3336 8.79996 17.3752 8.79996 15.5586V13.9752C8.80829 12.1502 7.84996 11.1919 6.03329 11.1919Z" fill="#9A0536"/>
</svg>
