<svg width="30" height="31" viewBox="0 0 30 31" fill="none" xmlns="http://www.w3.org/2000/svg">
<path opacity="0.4" d="M25.5 20.9125C25.15 21.85 24.4125 22.5625 23.45 22.8875C22.1 23.3375 20.7125 23.675 19.3125 23.9125C19.175 23.9375 19.0375 23.9625 18.9 23.975C18.675 24.0125 18.45 24.0375 18.225 24.0625C17.95 24.1 17.6625 24.125 17.375 24.15C16.5875 24.2125 15.8125 24.25 15.025 24.25C14.225 24.25 13.425 24.2125 12.6375 24.1375C12.3 24.1125 11.975 24.075 11.65 24.025C11.4625 24 11.275 23.975 11.1 23.95C10.9625 23.925 10.825 23.9125 10.6875 23.8875C9.30001 23.6625 7.92501 23.325 6.58751 22.875C5.58751 22.5375 4.82501 21.825 4.48751 20.9125C4.15001 20.0125 4.27501 18.9625 4.81251 18.0625L6.22501 15.7125C6.52501 15.2 6.80001 14.2125 6.80001 13.6125V11.2875C6.80001 6.75 10.4875 3.0625 15.025 3.0625C19.55 3.0625 23.2375 6.75 23.2375 11.2875V13.6125C23.2375 14.2125 23.5125 15.2 23.825 15.7125L25.2375 18.0625C25.75 18.9375 25.85 19.9625 25.5 20.9125Z" fill="#9A0536"/>
<path d="M15 13.9498C14.475 13.9498 14.05 13.5248 14.05 12.9998V9.1248C14.05 8.5998 14.475 8.1748 15 8.1748C15.525 8.1748 15.95 8.5998 15.95 9.1248V12.9998C15.9375 13.5248 15.5125 13.9498 15 13.9498Z" fill="#9A0536"/>
<path d="M18.5375 25.5125C18.0125 26.9625 16.625 28 15 28C14.0125 28 13.0375 27.6 12.35 26.8875C11.95 26.5125 11.65 26.0125 11.475 25.5C11.6375 25.525 11.8 25.5375 11.975 25.5625C12.2625 25.6 12.5625 25.6375 12.8625 25.6625C13.575 25.725 14.3 25.7625 15.025 25.7625C15.7375 25.7625 16.45 25.725 17.15 25.6625C17.4125 25.6375 17.675 25.625 17.925 25.5875C18.125 25.5625 18.325 25.5375 18.5375 25.5125Z" fill="#9A0536"/>
</svg>
