<svg width="20" height="20" viewBox="0 0 20 20" fill="none" xmlns="http://www.w3.org/2000/svg">
<path opacity="0.4" d="M18.3333 10.0002V14.1668C18.3333 16.6668 16.6666 18.3335 14.1666 18.3335H5.83329C3.33329 18.3335 1.66663 16.6668 1.66663 14.1668V10.0002C1.66663 7.7335 3.03329 6.15016 5.15829 5.88349C5.37496 5.85016 5.59996 5.8335 5.83329 5.8335H14.1666C14.3833 5.8335 14.5916 5.84182 14.7916 5.87515C16.9416 6.12515 18.3333 7.71683 18.3333 10.0002Z" fill="#4E4D4D"/>
<path d="M14.7917 5.87484C14.5917 5.8415 14.3833 5.83318 14.1667 5.83318H5.83333C5.59999 5.83318 5.37499 5.84984 5.15833 5.88318C5.27499 5.64984 5.44166 5.43318 5.64166 5.23318L8.34999 2.5165C9.49166 1.38317 11.3417 1.38317 12.4833 2.5165L13.9417 3.99152C14.475 4.51652 14.7583 5.18317 14.7917 5.87484Z" fill="#4E4D4D"/>
<path d="M18.3333 10.4165H15.8333C14.9166 10.4165 14.1666 11.1665 14.1666 12.0832C14.1666 12.9998 14.9166 13.7498 15.8333 13.7498H18.3333" fill="#4E4D4D"/>
</svg>
